<?xml version="1.0" encoding="UTF-8"?>
<svg width="32px" height="18px" viewBox="0 0 32 18" version="1.1" xmlns="http://www.w3.org/2000/svg" xmlns:xlink="http://www.w3.org/1999/xlink">
    <!-- Generator: Sketch 52.6 (67491) - http://www.bohemiancoding.com/sketch -->
    <title>Group 5</title>
    <desc>Created with Sketch.</desc>
    <g id="Search-Results-(Teachers)" stroke="none" stroke-width="1" fill="none" fill-rule="evenodd">
        <g id="MVL_Directory-Search-Teachers-Map@2x" transform="translate(-1128.000000, -514.000000)">
            <g id="Group-2-Copy" transform="translate(1098.000000, 497.000000)">
                <g id="Group" transform="translate(31.000000, 15.000000)">
                    <g id="Group-6">
                        <g id="Group-5" transform="translate(0.000000, 3.000000)">
                            <g id="Group-7-Copy" stroke="#B93142">
                                <g id="Group-3" transform="translate(0.000000, 0.000000)">
                                    <polygon id="Stroke-1" points="18.623494 0 13.7439759 2.359447 8.53915663 0 3.74096386 2.7281106 0 16 6.8313253 13.7142857 13.1746988 16 20.0060241 13.5668203 27 16 23.8283133 2.21198157"></polygon>
                                    <path d="M20.25,13.76 L18.9,-4.61852778e-14" id="Stroke-5"></path>
                                    <path d="M6.75,13.76 L8.1,0.32" id="Stroke-3"></path>
                                    <path d="M13.5,16 L13.5,1.92727273" id="Stroke-7"></path>
                                </g>
                            </g>
                            <g id="Group-Copy" transform="translate(22.000000, 5.000000)">
                                <circle id="Oval" fill="#FFFFFF" cx="3.5" cy="3.5" r="2.5"></circle>
                                <path d="M8.87695312,7.78710938 C8.95898446,7.86914071 9,7.96874991 9,8.0859375 C9,8.20312509 8.95898446,8.30273429 8.87695312,8.38476562 L8.38476562,8.87695312 C8.30273429,8.95898446 8.20312509,9 8.0859375,9 C7.96874991,9 7.86914071,8.95898446 7.78710938,8.87695312 L6.02929688,7.11914062 C5.94726554,7.03710929 5.90625,6.93750009 5.90625,6.8203125 L5.90625,6.5390625 C5.25000009,7.05468741 4.5,7.3125 3.65625,7.3125 C2.98828125,7.3125 2.37597665,7.14843759 1.81933594,6.8203125 C1.26269522,6.49218741 0.820312589,6.04980478 0.4921875,5.49316406 C0.164062411,4.93652335 0,4.32421875 0,3.65625 C0,2.98828125 0.164062411,2.37597665 0.4921875,1.81933594 C0.820312589,1.26269522 1.26269522,0.820312589 1.81933594,0.4921875 C2.37597665,0.164062411 2.98828125,0 3.65625,0 C4.32421875,0 4.93652335,0.164062411 5.49316406,0.4921875 C6.04980478,0.820312589 6.49218741,1.26269522 6.8203125,1.81933594 C7.14843759,2.37597665 7.3125,2.98828125 7.3125,3.65625 C7.3125,4.5 7.05468741,5.25000009 6.5390625,5.90625 L6.8203125,5.90625 C6.93750009,5.90625 7.03710929,5.94726554 7.11914062,6.02929688 L8.87695312,7.78710938 Z M3.65625,5.90625 C4.06640616,5.90625 4.44433585,5.80664054 4.79003906,5.60742187 C5.13574228,5.40820321 5.40820321,5.13574228 5.60742187,4.79003906 C5.80664054,4.44433585 5.90625,4.06640616 5.90625,3.65625 C5.90625,3.24609384 5.80664054,2.86816415 5.60742187,2.52246094 C5.40820321,2.17675772 5.13574228,1.90429679 4.79003906,1.70507812 C4.44433585,1.50585946 4.06640616,1.40625 3.65625,1.40625 C3.24609384,1.40625 2.86816415,1.50585946 2.52246094,1.70507812 C2.17675772,1.90429679 1.90429679,2.17675772 1.70507812,2.52246094 C1.50585946,2.86816415 1.40625,3.24609384 1.40625,3.65625 C1.40625,4.06640616 1.50585946,4.44433585 1.70507812,4.79003906 C1.90429679,5.13574228 2.17675772,5.40820321 2.52246094,5.60742187 C2.86816415,5.80664054 3.24609384,5.90625 3.65625,5.90625 Z" id="" fill="#B93142" fill-rule="nonzero"></path>
                            </g>
                        </g>
                    </g>
                </g>
            </g>
        </g>
    </g>
</svg>