<?xml version="1.0" encoding="UTF-8"?>
<svg width="544px" height="544px" viewBox="0 0 544 544" version="1.1" xmlns="http://www.w3.org/2000/svg" xmlns:xlink="http://www.w3.org/1999/xlink">
    <!-- Generator: Sketch 52.6 (67491) - http://www.bohemiancoding.com/sketch -->
    <title>Group</title>
    <desc>Created with Sketch.</desc>
    <g id="Studio-Detail-Page" stroke="none" stroke-width="1" fill="none" fill-rule="evenodd">
        <g id="MVL_Studio-Detail-V2@2x" transform="translate(-156.000000, -304.000000)">
            <g id="Group" transform="translate(156.000000, 304.000000)">
                <rect id="Rectangle-5:3" fill="#FBF7F7" x="0" y="0" width="544" height="544"></rect>
                <g id="Group-7" opacity="0.100000001" transform="translate(133.000000, 95.000000)">
                    <path d="M102.232654,351.877359 C82.6175028,340.441897 68.6003999,320.323682 67.8090528,296.662085 C66.6000502,252.50158 97.8289537,230.802021 116.249757,201.225025 C142.679287,158.631221 135.461907,132.209593 135.461907,132.209593 C135.461907,132.209593 157.480409,144.443048 170.295837,189.789562 C174.296536,203.194384 175.102538,216.599206 173.893535,229.227998 C171.900513,261.162369 157.88341,289.956014 157.88341,289.956014 C157.88341,289.956014 182.305263,284.831287 189.112314,241.058796 C200.323065,252.50158 210.742469,269.054448 211.936817,286.412631 C213.937167,316.384964 195.919365,343.992601 168.698488,355.816078 C215.944844,345.171288 249.569771,305.732852 261.176196,276.946528 C275.9993,240.66346 271.991274,208.333753 269.587923,180.323459 C266.378571,142.071032 280,113.680044 280,113.680044 C280,113.680044 253.980799,121.169466 234.753994,152.320486 C225.946593,166.523301 222.348894,187.417546 222.348894,187.417546 C222.348894,187.417546 224.349244,168.887997 211.936817,134.969624 C199.517063,101.841924 188.313639,90.0111255 181.506588,65.5661772 C172.699187,32.8338131 192.321666,0.884800194 192.321666,0.884800194 C192.321666,0.884800194 114.645081,15.0802943 79.4154777,81.7310307 C48.1865742,140.892345 61.0020018,176.377419 61.0020018,176.377419 C61.0020018,176.377419 47.7835734,164.151285 40.9765224,147.195759 C34.1767986,130.240233 35.7814748,114.858731 35.7814748,114.858731 C35.7814748,114.858731 -19.4736076,174.803396 7.34426822,250.129563 C25.3693979,302.972821 60.2033273,337.681865 102.232654,351.877359" id="Fill-1" fill="#B93142"></path>
                    <path d="M102.232654,351.877359 C82.6175028,340.441897 68.6003999,320.323682 67.8090528,296.662085 C66.6000502,252.50158 97.8289537,230.802021 116.249757,201.225025 C142.679287,158.631221 135.461907,132.209593 135.461907,132.209593 C135.461907,132.209593 157.480409,144.443048 170.295837,189.789562 C174.296536,203.194384 175.102538,216.599206 173.893535,229.227998 C171.900513,261.162369 157.88341,289.956014 157.88341,289.956014 C157.88341,289.956014 182.305263,284.831287 189.112314,241.058796 C200.323065,252.50158 210.742469,269.054448 211.936817,286.412631 C213.937167,316.384964 195.919365,343.992601 168.698488,355.816078 C215.944844,345.171288 249.569771,305.732852 261.176196,276.946528 C275.9993,240.66346 271.991274,208.333753 269.587923,180.323459 C266.378571,142.071032 280,113.680044 280,113.680044 C280,113.680044 253.980799,121.169466 234.753994,152.320486 C225.946593,166.523301 222.348894,187.417546 222.348894,187.417546 C222.348894,187.417546 224.349244,168.887997 211.936817,134.969624 C199.517063,101.841924 188.313639,90.0111255 181.506588,65.5661772 C172.699187,32.8338131 192.321666,0.884800194 192.321666,0.884800194 C192.321666,0.884800194 114.645081,15.0802943 79.4154777,81.7310307 C48.1865742,140.892345 61.0020018,176.377419 61.0020018,176.377419 C61.0020018,176.377419 47.7835734,164.151285 40.9765224,147.195759 C34.1767986,130.240233 35.7814748,114.858731 35.7814748,114.858731 C35.7814748,114.858731 -19.4736076,174.803396 7.34426822,250.129563 C25.3693979,302.972821 60.2033273,337.681865 102.232654,351.877359 Z" id="Stroke-3" stroke="#B91222" stroke-width="0.66681" stroke-linecap="round" stroke-linejoin="round"></path>
                </g>
            </g>
        </g>
    </g>
</svg>