<?xml version="1.0" encoding="UTF-8"?>
<svg width="41px" height="50px" viewBox="0 0 41 50" version="1.1" xmlns="http://www.w3.org/2000/svg" xmlns:xlink="http://www.w3.org/1999/xlink">
    <!-- Generator: Sketch 52.6 (67491) - http://www.bohemiancoding.com/sketch -->
    <title>MAP - Instructor PIN</title>
    <desc>Created with Sketch.</desc>
    <defs>
        <polygon id="path-1" points="0.0924567568 0.0292857143 8.17421351 0.0292857143 8.17421351 7.93985714 0.0924567568 7.93985714"></polygon>
    </defs>
    <g id="Account-Pages" stroke="none" stroke-width="1" fill="none" fill-rule="evenodd">
        <g id="Desktop---Account---Set_Location-2@2x" transform="translate(-684.000000, -660.000000)">
            <g id="MAP---Instructor-PIN" transform="translate(675.000000, 651.000000)">
                <g id="MAP-PIN" fill="#B93142">
                    <path d="M29.5,9 L29.5,9 C40.8218374,9 50,18.1781626 50,29.5 L50,50 L29.5,50 C18.1781626,50 9,40.8218374 9,29.5 L9,29.5 C9,18.1781626 18.1781626,9 29.5,9 Z" id="Rectangle" transform="translate(29.500000, 29.500000) rotate(-315.000000) translate(-29.500000, -29.500000) "></path>
                </g>
                <g id="Group-12" transform="translate(16.000000, 17.000000)">
                    <path d="M12.1813054,11.5893571 L6.09317027,16.8922143 L8.32541351,22.8722143 C8.32541351,22.8722143 8.38817027,22.9200714 8.50565676,23.0036429 C11.5522784,25.1493571 15.6876568,25.1493571 18.7335486,23.0036429 C18.8517649,22.9200714 18.9137919,22.8722143 18.9137919,22.8722143 L21.1460351,16.8922143 L15.0579,11.5893571 C14.2376838,10.8750714 13.0015216,10.8750714 12.1813054,11.5893571" id="Fill-1" fill="#FFFFFF"></path>
                    <path d="M12.1813054,11.5893571 L6.09317027,16.8922143 L8.32541351,22.8722143 C8.32541351,22.8722143 8.38817027,22.9200714 8.50565676,23.0036429 C11.5522784,25.1493571 15.6876568,25.1493571 18.7335486,23.0036429 C18.8517649,22.9200714 18.9137919,22.8722143 18.9137919,22.8722143 L21.1460351,16.8922143 L15.0579,11.5893571 C14.2376838,10.8750714 13.0015216,10.8750714 12.1813054,11.5893571 Z" id="Stroke-3" stroke="#B93142" stroke-width="0.72"></path>
                    <path d="M13.6197486,10.3233571 C11.8720459,10.2955 4.18799189,10.6226429 0.499937838,18.2397857 C0.11537027,19.0347857 0.586775676,19.9740714 1.47266757,20.1255 C4.46018108,20.6347857 9.28004595,20.5762143 13.6197486,15.7869286 C17.9594514,20.5762143 22.7793162,20.6347857 25.7668297,20.1255 C26.6527216,19.9740714 27.124127,19.0347857 26.7395595,18.2397857 C23.0515054,10.6226429 15.3674514,10.2955 13.6197486,10.3233571" id="Fill-5" fill="#FFFFFF"></path>
                    <path d="M13.6197486,10.3233571 C11.8720459,10.2955 4.18799189,10.6226429 0.499937838,18.2397857 C0.11537027,19.0347857 0.586775676,19.9740714 1.47266757,20.1255 C4.46018108,20.6347857 9.28004595,20.5762143 13.6197486,15.7869286 C17.9594514,20.5762143 22.7793162,20.6347857 25.7668297,20.1255 C26.6527216,19.9740714 27.124127,19.0347857 26.7395595,18.2397857 C23.0515054,10.6226429 15.3674514,10.2955 13.6197486,10.3233571 Z" id="Stroke-7" stroke="#B93142" stroke-width="0.72"></path>
                    <g id="Group-11" transform="translate(9.486486, 0.684857)">
                        <mask id="mask-2" fill="white">
                            <use xlink:href="#path-1"></use>
                        </mask>
                        <g id="Clip-10"></g>
                        <path d="M8.17421351,3.98485714 C8.17421351,6.16985714 6.36521351,7.93985714 4.13297027,7.93985714 C1.90145676,7.93985714 0.0924567568,6.16985714 0.0924567568,3.98485714 C0.0924567568,1.79985714 1.90145676,0.0291428571 4.13297027,0.0291428571 C6.36521351,0.0291428571 8.17421351,1.79985714 8.17421351,3.98485714" id="Fill-9" fill="#FFFFFF" mask="url(#mask-2)"></path>
                    </g>
                </g>
            </g>
        </g>
    </g>
</svg>