<?xml version="1.0" encoding="UTF-8"?>
<svg width="20px" height="20px" viewBox="0 0 20 20" version="1.1" xmlns="http://www.w3.org/2000/svg" xmlns:xlink="http://www.w3.org/1999/xlink">
    <!-- Generator: Sketch 52.6 (67491) - http://www.bohemiancoding.com/sketch -->
    <title>Loading</title>
    <desc>Created with Sketch.</desc>
    <g id="Account-Pages-(Set-Your-Location)" stroke="none" stroke-width="1" fill="none" fill-rule="evenodd">
        <g id="Group-6" transform="translate(-5.000000, 0.000000)" fill="#B93142">
            <path d="M12.7507608,80.7925814 L18.0041731,77.8940198 C26.481126,93.2578225 42.6330953,103 60.5,103 C87.2858104,103 109,81.2858104 109,54.5 C109,53.0044378 108.932398,51.5175289 108.798061,50.0421745 L114.773341,48.498099 C114.924144,50.1542815 115,52.8227356 115,54.5 C115,84.5995189 90.5995189,109 60.5,109 C40.4258035,109 22.2731013,98.051066 12.7507608,80.7925814 Z M109.573503,30.7655285 L104.173869,33.3816252 C96.1272236,16.7733184 79.2838211,6 60.5,6 C33.7141896,6 12,27.7141896 12,54.5 C12,56.2929942 12.0971642,58.0734462 12.2899625,59.8363156 L6,61.1049029 C5.78352125,59.1255085 6,56.5110189 6,54.5 C6,24.4004811 30.4004811,0 60.5,0 C81.605276,0 100.533412,12.1067486 109.573503,30.7655285 Z" id="Oval" fill-rule="nonzero"></path>
            <path d="M16.5573684,69.3743557 C18.888729,73.8265622 20.754432,77.1727019 22.1544776,79.4127747 C23.5545231,81.6528475 25.8554867,84.9733745 29.0573684,89.3743557 L4.05736835,89.3743557 C6.94951924,85.1156397 9.09680525,81.8643448 10.4992264,79.620471 C11.9016475,77.3765971 13.9210282,73.9612254 16.5573684,69.3743557 Z" id="Triangle" transform="translate(16.557368, 79.374356) rotate(-28.000000) translate(-16.557368, -79.374356) "></path>
            <path d="M104.793727,20.6654052 C107.125088,25.1176117 108.990791,28.4637514 110.390836,30.7038242 C111.790882,32.943897 114.091845,36.264424 117.293727,40.6654052 L92.2937272,40.6654052 C95.185878,36.4066892 97.3331641,33.1553943 98.7355852,30.9115205 C100.138006,28.6676467 102.157387,25.2522749 104.793727,20.6654052 Z" id="Triangle" transform="translate(104.793727, 30.665405) rotate(-207.000000) translate(-104.793727, -30.665405) "></path>
        </g>
    </g>
</svg>