<?xml version="1.0" encoding="UTF-8"?>
<svg width="65px" height="78px" viewBox="0 0 65 78" version="1.1" xmlns="http://www.w3.org/2000/svg" xmlns:xlink="http://www.w3.org/1999/xlink">
    <!-- Generator: Sketch 52.6 (67491) - http://www.bohemiancoding.com/sketch -->
    <title>MAP PIN</title>
    <desc>Created with Sketch.</desc>
    <g id="Search-Results-(Teachers)" stroke="none" stroke-width="1" fill="none" fill-rule="evenodd">
        <g id="MVL_Directory-Search-Teachers-Info-Map@2x" transform="translate(-884.000000, -953.000000)">
            <g id="MAP-PIN" transform="translate(871.000000, 940.000000)">
                <g>
                    <path d="M45.725,13.95 L45.725,13.95 C63.2738479,13.95 77.5,28.1761521 77.5,45.725 L77.5,77.5 L45.725,77.5 C28.1761521,77.5 13.95,63.2738479 13.95,45.725 L13.95,45.725 C13.95,28.1761521 28.1761521,13.95 45.725,13.95 Z" id="Rectangle" fill="#B93142" transform="translate(45.725000, 45.725000) rotate(-315.000000) translate(-45.725000, -45.725000) "></path>
                    <g id="Group-7" transform="translate(27.900000, 23.250000)">
                        <path d="M12.9723037,43.3157079 C10.5252512,41.9114699 8.77657295,39.4410179 8.67784987,36.5354499 C8.52702295,31.1126819 12.4229281,28.4480459 14.7209819,24.8160859 C18.0172358,19.5857039 17.1186729,16.3412129 17.1186729,16.3412129 C17.1186729,16.3412129 19.8655512,17.8434419 21.4634024,23.4118479 C21.9625024,25.0579169 22.0630537,26.7039859 21.9131409,28.2547609 C21.6635909,32.1761989 19.9149127,35.7119659 19.9149127,35.7119659 C19.9149127,35.7119659 22.9616165,35.0826659 23.8108178,29.7075449 C25.2093947,31.1126819 26.5083345,33.1453209 26.6582473,35.2768499 C26.9077973,38.9573559 24.6600191,42.3474849 21.2641281,43.7993699 C27.1573473,42.4922239 31.3530781,37.6493109 32.8010165,34.1144429 C34.6493319,29.6589989 34.1502319,25.6890149 33.8504063,22.2494409 C33.4500294,17.5521659 35.149346,14.0658439 35.149346,14.0658439 C35.149346,14.0658439 31.9024537,14.9855209 29.5047627,18.8107659 C28.4060114,20.5548259 27.9571871,23.1205719 27.9571871,23.1205719 C27.9571871,23.1205719 28.2067371,20.8452029 26.6582473,16.6801359 C25.1097576,12.6121609 23.7111806,11.1593769 22.8619794,8.1576159 C21.7632281,4.1372879 24.2111947,0.2149509 24.2111947,0.2149509 C24.2111947,0.2149509 14.5207935,1.9590109 10.1257883,10.1426079 C6.23079731,17.4074269 7.82864859,21.7648799 7.82864859,21.7648799 C7.82864859,21.7648799 6.17960756,20.2635499 5.33040628,18.1814659 C4.4821191,16.0993819 4.68139346,14.2105829 4.68139346,14.2105829 C4.68139346,14.2105829 -2.21093987,21.5715949 1.13467551,30.8214059 C3.38336782,37.3103879 7.72809731,41.5725469 12.9723037,43.3157079" id="Fill-1" fill="#FFFFFF"></path>
                        <path d="M12.9723037,43.3157079 C10.5252512,41.9114699 8.77657295,39.4410179 8.67784987,36.5354499 C8.52702295,31.1126819 12.4229281,28.4480459 14.7209819,24.8160859 C18.0172358,19.5857039 17.1186729,16.3412129 17.1186729,16.3412129 C17.1186729,16.3412129 19.8655512,17.8434419 21.4634024,23.4118479 C21.9625024,25.0579169 22.0630537,26.7039859 21.9131409,28.2547609 C21.6635909,32.1761989 19.9149127,35.7119659 19.9149127,35.7119659 C19.9149127,35.7119659 22.9616165,35.0826659 23.8108178,29.7075449 C25.2093947,31.1126819 26.5083345,33.1453209 26.6582473,35.2768499 C26.9077973,38.9573559 24.6600191,42.3474849 21.2641281,43.7993699 C27.1573473,42.4922239 31.3530781,37.6493109 32.8010165,34.1144429 C34.6493319,29.6589989 34.1502319,25.6890149 33.8504063,22.2494409 C33.4500294,17.5521659 35.149346,14.0658439 35.149346,14.0658439 C35.149346,14.0658439 31.9024537,14.9855209 29.5047627,18.8107659 C28.4060114,20.5548259 27.9571871,23.1205719 27.9571871,23.1205719 C27.9571871,23.1205719 28.2067371,20.8452029 26.6582473,16.6801359 C25.1097576,12.6121609 23.7111806,11.1593769 22.8619794,8.1576159 C21.7632281,4.1372879 24.2111947,0.2149509 24.2111947,0.2149509 C24.2111947,0.2149509 14.5207935,1.9590109 10.1257883,10.1426079 C6.23079731,17.4074269 7.82864859,21.7648799 7.82864859,21.7648799 C7.82864859,21.7648799 6.17960756,20.2635499 5.33040628,18.1814659 C4.4821191,16.0993819 4.68139346,14.2105829 4.68139346,14.2105829 C4.68139346,14.2105829 -2.21093987,21.5715949 1.13467551,30.8214059 C3.38336782,37.3103879 7.72809731,41.5725469 12.9723037,43.3157079 Z" id="Stroke-3"></path>
                        <path d="M12.9723037,43.3157079 C13.8132781,43.6618229 15.1432973,44.0933429 16.825246,44.1787479 C18.420355,44.2596579 20.4085281,44.0403019 21.2641281,43.7993699" id="Stroke-5"></path>
                    </g>
                </g>
            </g>
        </g>
    </g>
</svg>