<!-- <svg id="Layer_1" data-name="Layer 1" xmlns="http://www.w3.org/2000/svg" viewBox="0 0 39.19 10.049"><title>search-arrow-icon</title><path d="M39.913,5.445,35.4.86a.25.25,0,0,0-.428.174L34.94,5.362.8,5.079l-.009,1,34.137.284-.035,4.22a.25.25,0,0,0,.433.172L39.919,5.79A.25.25,0,0,0,39.913,5.445Z" transform="translate(-0.795 -0.786)"/></svg> -->
<svg xmlns="http://www.w3.org/2000/svg" viewBox="0 0 256 512"><path fill="#b93142" id="icon-angle-left" d="M31.7 239l136-136c9.4-9.4 24.6-9.4 33.9 0l22.6 22.6c9.4 9.4 9.4 24.6 0 33.9L127.9 256l96.4 96.4c9.4 9.4 9.4 24.6 0 33.9L201.7 409c-9.4 9.4-24.6 9.4-33.9 0l-136-136c-9.5-9.4-9.5-24.6-.1-34z"/></svg>